<svg width="28" height="28" viewBox="0 0 28 28" fill="none" xmlns="http://www.w3.org/2000/svg">
<mask id="mask0_11_335" style="mask-type:luminance" maskUnits="userSpaceOnUse" x="0" y="0" width="28" height="28">
<path d="M0 1.90735e-06H28V28H0V1.90735e-06Z" fill="white"/>
</mask>
<g mask="url(#mask0_11_335)">
<path d="M24.7552 5.39583C24.7552 7.77178 22.8291 9.69788 20.4531 9.69788C18.0772 9.69788 16.151 7.77178 16.151 5.39583C16.151 3.01988 18.0772 1.09373 20.4531 1.09373C22.8291 1.09373 24.7552 3.01988 24.7552 5.39583Z" stroke="black" stroke-width="2" stroke-miterlimit="10" stroke-linecap="round" stroke-linejoin="round"/>
<path d="M16.8624 10.7885C17.889 10.0997 19.1242 9.69792 20.4533 9.69792C24.0172 9.69792 26.9062 12.587 26.9062 16.1508V18.3021H1.09396" stroke="black" stroke-width="2" stroke-miterlimit="10" stroke-linecap="round" stroke-linejoin="round"/>
<path d="M11.8488 5.39583C11.8488 7.77178 9.92261 9.69788 7.54666 9.69788C5.17071 9.69788 3.24462 7.77178 3.24462 5.39583C3.24462 3.01988 5.17071 1.09373 7.54666 1.09373C9.92261 1.09373 11.8488 3.01988 11.8488 5.39583Z" stroke="black" stroke-width="2" stroke-miterlimit="10" stroke-linecap="round" stroke-linejoin="round"/>
<path d="M1.09396 18.3021V16.1508C1.09396 12.587 3.98305 9.69792 7.54687 9.69792C8.87594 9.69792 10.1111 10.0998 11.1377 10.7884" stroke="black" stroke-width="2" stroke-miterlimit="10" stroke-linecap="round" stroke-linejoin="round"/>
<path d="M18.3023 14C18.3023 16.376 16.3762 18.3021 14.0002 18.3021C11.6242 18.3021 9.69811 16.376 9.69811 14C9.69811 11.6241 11.6242 9.69792 14.0002 9.69792C16.3762 9.69792 18.3023 11.6241 18.3023 14Z" stroke="black" stroke-width="2" stroke-miterlimit="10" stroke-linecap="round" stroke-linejoin="round"/>
<path d="M20.4533 26.9062V24.755C20.4533 21.1911 17.5643 18.3021 14.0004 18.3021C10.4366 18.3021 7.54747 21.1911 7.54747 24.755V26.9062H20.4533Z" stroke="black" stroke-width="2" stroke-miterlimit="10" stroke-linecap="round" stroke-linejoin="round"/>
</g>
</svg>
