<svg width="70" height="80" viewBox="0 0 70 80" fill="none" xmlns="http://www.w3.org/2000/svg">
<path fill-rule="evenodd" clip-rule="evenodd" d="M7.5 0C5.51088 0 3.60322 0.911194 2.1967 2.53313C0.790176 4.15507 0 6.35488 0 8.64865L0 43.2432C0 45.537 0.790176 47.7368 2.1967 49.3588C3.60322 50.9807 5.51088 51.8919 7.5 51.8919H62.5C64.4891 51.8919 66.3968 50.9807 67.8033 49.3588C69.2098 47.7368 70 45.537 70 43.2432V8.64865C70 6.35488 69.2098 4.15507 67.8033 2.53313C66.3968 0.911194 64.4891 0 62.5 0L7.5 0ZM38.125 8.38342C38.125 7.42769 37.7958 6.5111 37.2097 5.83529C36.6237 5.15948 35.8288 4.77982 35 4.77982C34.1712 4.77982 33.3763 5.15948 32.7903 5.83529C32.2042 6.5111 31.875 7.42769 31.875 8.38342V10.6897C30.0756 10.9329 28.4092 11.9036 27.1717 13.4295C25.9342 14.9555 25.2059 16.9378 25.1159 19.0244C25.026 21.111 25.5803 23.1668 26.6805 24.8267C27.7806 26.4866 29.3554 27.6431 31.125 28.0908L37.11 29.5957C37.5918 29.7011 38.0215 30.012 38.3135 30.4665C38.6054 30.921 38.7381 31.4856 38.6851 32.0478C38.6321 32.6101 38.3973 33.1287 38.0276 33.5002C37.6578 33.8718 37.1802 34.069 36.69 34.0526H33.31C32.9056 34.0542 32.5109 33.9107 32.1803 33.6422C31.8498 33.3736 31.5998 32.9931 31.465 32.5535C31.1696 31.683 30.5923 30.979 29.8552 30.59C29.1181 30.201 28.2787 30.1576 27.5143 30.4689C26.75 30.7802 26.1204 31.4218 25.7585 32.2583C25.3967 33.0948 25.3309 34.0607 25.575 34.9521C26.545 38.1232 28.94 40.516 31.875 41.1157V43.5085C31.875 44.4642 32.2042 45.3808 32.7903 46.0566C33.3763 46.7324 34.1712 47.1121 35 47.1121C35.8288 47.1121 36.6237 46.7324 37.2097 46.0566C37.7958 45.3808 38.125 44.4642 38.125 43.5085V41.1099C39.9957 40.7277 41.6933 39.6087 42.9283 37.9439C44.1633 36.2792 44.859 34.1718 44.8968 31.9815C44.9345 29.7912 44.312 27.6536 43.1354 25.9335C41.9588 24.2135 40.301 23.0176 38.445 22.5499L32.46 21.045C32.1189 20.9625 31.8166 20.7367 31.6118 20.4116C31.407 20.0864 31.3143 19.6851 31.3517 19.2856C31.3891 18.886 31.5539 18.5168 31.8142 18.2495C32.0744 17.9822 32.4115 17.836 32.76 17.8393H36.69C37.0947 17.836 37.4902 17.9788 37.821 18.2476C38.1518 18.5164 38.4015 18.8978 38.535 19.3384C38.6612 19.7993 38.8666 20.2263 39.1389 20.5939C39.4112 20.9614 39.7449 21.262 40.12 21.4778C40.4951 21.6936 40.9041 21.8201 41.3225 21.8499C41.7409 21.8797 42.1602 21.8121 42.5555 21.6511C42.9508 21.4901 43.314 21.2391 43.6234 20.9129C43.9328 20.5868 44.1821 20.1921 44.3566 19.7526C44.531 19.313 44.6269 18.8374 44.6387 18.3542C44.6505 17.871 44.5778 17.39 44.425 16.9398C43.9419 15.3614 43.1042 13.9591 41.9973 12.8762C40.8905 11.7933 39.5542 11.0686 38.125 10.7762V8.38342ZM13.75 21.6216C14.7446 21.6216 15.6984 22.0772 16.4017 22.8882C17.1049 23.6992 17.5 24.7991 17.5 25.9459C17.5 27.0928 17.1049 28.1927 16.4017 29.0037C15.6984 29.8147 14.7446 30.2703 13.75 30.2703C12.7554 30.2703 11.8016 29.8147 11.0983 29.0037C10.3951 28.1927 10 27.0928 10 25.9459C10 24.7991 10.3951 23.6992 11.0983 22.8882C11.8016 22.0772 12.7554 21.6216 13.75 21.6216ZM56.25 21.6216C57.2446 21.6216 58.1984 22.0772 58.9016 22.8882C59.6049 23.6992 60 24.7991 60 25.9459C60 27.0928 59.6049 28.1927 58.9016 29.0037C58.1984 29.8147 57.2446 30.2703 56.25 30.2703C55.2554 30.2703 54.3016 29.8147 53.5984 29.0037C52.8951 28.1927 52.5 27.0928 52.5 25.9459C52.5 24.7991 52.8951 23.6992 53.5984 22.8882C54.3016 22.0772 55.2554 21.6216 56.25 21.6216ZM22.5 56.9369C24.225 56.9369 25.625 58.5514 25.625 60.5405V72.0721C25.625 73.0278 25.2958 73.9444 24.7097 74.6202C24.1237 75.296 23.3288 75.6757 22.5 75.6757C21.6712 75.6757 20.8763 75.296 20.2903 74.6202C19.7042 73.9444 19.375 73.0278 19.375 72.0721V60.5405C19.375 58.5514 20.775 56.9369 22.5 56.9369ZM50.625 60.5405C50.625 60.0673 50.5442 59.5987 50.3871 59.1615C50.2301 58.7243 49.9999 58.327 49.7097 57.9924C49.4195 57.6578 49.075 57.3923 48.6959 57.2112C48.3167 57.0301 47.9104 56.9369 47.5 56.9369C47.0896 56.9369 46.6833 57.0301 46.3041 57.2112C45.925 57.3923 45.5805 57.6578 45.2903 57.9924C45.0001 58.327 44.7699 58.7243 44.6129 59.1615C44.4558 59.5987 44.375 60.0673 44.375 60.5405V72.0721C44.375 72.5453 44.4558 73.0139 44.6129 73.4511C44.7699 73.8883 45.0001 74.2856 45.2903 74.6202C45.5805 74.9548 45.925 75.2203 46.3041 75.4014C46.6833 75.5825 47.0896 75.6757 47.5 75.6757C47.9104 75.6757 48.3167 75.5825 48.6959 75.4014C49.075 75.2203 49.4195 74.9548 49.7097 74.6202C49.9999 74.2856 50.2301 73.8883 50.3871 73.4511C50.5442 73.0139 50.625 72.5453 50.625 72.0721V60.5405ZM38.125 64.8649C38.125 63.9091 37.7958 62.9925 37.2097 62.3167C36.6237 61.6409 35.8288 61.2613 35 61.2613C34.1712 61.2613 33.3763 61.6409 32.7903 62.3167C32.2042 62.9925 31.875 63.9091 31.875 64.8649V76.3964C31.875 77.3521 32.2042 78.2687 32.7903 78.9445C33.3763 79.6203 34.1712 80 35 80C35.8288 80 36.6237 79.6203 37.2097 78.9445C37.7958 78.2687 38.125 77.3521 38.125 76.3964V64.8649Z" fill="#E4A951"/>
</svg>
