<svg width="28" height="26" viewBox="0 0 28 26" fill="none" xmlns="http://www.w3.org/2000/svg">
<path fill-rule="evenodd" clip-rule="evenodd" d="M7.65625 5.67188V3.23675C7.65625 2.26758 8.44922 1.47461 9.41839 1.47461H18.5816C19.5508 1.47461 20.3438 2.26758 20.3438 3.23675V5.67188" fill="black"/>
<path d="M7.65625 5.67188V3.23675C7.65625 2.26758 8.44922 1.47461 9.41839 1.47461H18.5816C19.5508 1.47461 20.3438 2.26758 20.3438 3.23675V5.67188" stroke="white" stroke-width="2" stroke-miterlimit="22.9256" stroke-linecap="round" stroke-linejoin="round"/>
<path fill-rule="evenodd" clip-rule="evenodd" d="M26.0859 13.5469V22.8848C26.0859 23.7869 25.3475 24.5254 24.4453 24.5254H3.55469C2.65251 24.5254 1.91406 23.7871 1.91406 22.8848V13.6016" fill="black"/>
<path d="M26.0859 13.5469V22.8848C26.0859 23.7869 25.3475 24.5254 24.4453 24.5254H3.55469C2.65251 24.5254 1.91406 23.7871 1.91406 22.8848V13.6016" stroke="white" stroke-width="2" stroke-miterlimit="22.9256" stroke-linecap="round" stroke-linejoin="round"/>
<path fill-rule="evenodd" clip-rule="evenodd" d="M11.8125 16.3086C6.02716 15.9778 0.820312 14.3234 0.820312 11.3455V7.46289C0.820312 6.55929 1.55728 5.82227 2.46094 5.82227H25.5391C26.4427 5.82227 27.1797 6.55934 27.1797 7.46289V11.3455C27.1797 14.3421 21.907 15.9985 16.0781 16.3147" fill="black"/>
<path d="M11.8125 16.3086C6.02716 15.9778 0.820312 14.3234 0.820312 11.3455V7.46289C0.820312 6.55929 1.55728 5.82227 2.46094 5.82227H25.5391C26.4427 5.82227 27.1797 6.55934 27.1797 7.46289V11.3455C27.1797 14.3421 21.907 15.9985 16.0781 16.3147" stroke="white" stroke-width="2" stroke-miterlimit="22.9256" stroke-linecap="round" stroke-linejoin="round"/>
<path fill-rule="evenodd" clip-rule="evenodd" d="M11.9766 14.6816H16.0234V16.5684C16.0234 17.6061 15.1744 18.4551 14.1367 18.4551H13.8633C12.8256 18.4551 11.9766 17.6061 11.9766 16.5684V14.6816Z" fill="black" stroke="white" stroke-width="2" stroke-miterlimit="22.9256" stroke-linecap="round" stroke-linejoin="round"/>
</svg>
