<svg width="70" height="80" viewBox="0 0 70 80" fill="none" xmlns="http://www.w3.org/2000/svg">
<path d="M21.485 0.00311823C18.675 -0.0333395 15.8867 0.569861 13.2815 1.77779C10.6763 2.98571 8.30588 4.77436 6.30763 7.04015C4.30937 9.30594 2.72295 12.0039 1.64022 14.9776C0.557503 17.9514 0 21.142 0 24.3646C0 27.5872 0.557503 30.7778 1.64022 33.7515C2.72295 36.7253 4.30937 39.4232 6.30763 41.689C8.30588 43.9548 10.6763 45.7435 13.2815 46.9514C15.8867 48.1593 18.675 48.7625 21.485 48.7261C27.1194 48.7261 32.5231 46.1593 36.5072 41.5903C40.4913 37.0213 42.7296 30.8245 42.7296 24.363C42.7296 17.9016 40.4913 11.7047 36.5072 7.13577C32.5231 2.56681 27.1194 0.00311837 21.485 0.00311823ZM14.6871 8.47546C15.6141 8.4734 16.5324 8.68132 17.3891 9.08729C18.2459 9.49326 19.0243 10.0893 19.6796 10.8411C20.335 11.593 20.8544 12.4859 21.2081 13.4685C21.5618 14.4512 21.7427 15.5043 21.7406 16.5674C21.7431 17.6304 21.5624 18.6835 21.2088 19.6662C20.8552 20.6489 20.3357 21.5417 19.6803 22.2934C19.0248 23.0451 18.2462 23.6408 17.3893 24.0463C16.5324 24.4518 15.6141 24.659 14.6871 24.6562C13.7602 24.659 12.8418 24.4518 11.9849 24.0463C11.128 23.6408 10.3495 23.0451 9.69399 22.2934C9.03852 21.5417 8.51906 20.6489 8.16548 19.6662C7.8119 18.6835 7.63117 17.6304 7.63368 16.5674C7.63189 15.5046 7.81311 14.4518 8.16695 13.4695C8.52078 12.4872 9.04027 11.5947 9.6956 10.8431C10.3509 10.0916 11.1292 9.49588 11.9858 9.09011C12.8423 8.68434 13.7604 8.4734 14.6871 8.47546ZM44.8533 35.6636C44.1071 37.6636 43.1658 39.5602 42.0471 41.3171L63.2917 65.677C63.7384 66.1963 63.9889 66.8964 63.9889 67.6259C63.9889 68.3554 63.7384 69.0555 63.2917 69.5748C62.8382 70.0856 62.228 70.3718 61.5923 70.3718C60.9566 70.3718 60.3464 70.0856 59.8928 69.5748L38.9038 45.4082C36.2531 48.2879 33.0951 50.4825 29.6424 51.8443V56.132C29.6424 57.504 30.6512 58.664 31.8531 58.664H37.7998V65.4868C37.7998 66.8588 38.8086 68.0188 40.0105 68.0188H45.9572V74.8416C45.9572 76.2136 46.9688 77.3736 48.1679 77.3736H54.1989L55.7298 79.1292C56.6598 80.1925 65.9755 80.7257 68.3058 78.0565C70.6361 75.381 70.1657 64.6978 69.2385 63.6345L44.8533 35.6636Z" fill="#F24E1E"/>
</svg>
