<svg width="74" height="84" viewBox="0 0 74 84" fill="none" xmlns="http://www.w3.org/2000/svg">
<path d="M67.625 22H6.375C5.21468 22 4.10188 22.4214 3.28141 23.1716C2.46094 23.9217 2 24.9391 2 26V78C2 79.0609 2.46094 80.0783 3.28141 80.8284C4.10188 81.5786 5.21468 82 6.375 82H67.625C68.7853 82 69.8981 81.5786 70.7186 80.8284C71.5391 80.0783 72 79.0609 72 78V26C72 24.9391 71.5391 23.9217 70.7186 23.1716C69.8981 22.4214 68.7853 22 67.625 22Z" fill="#4ECB71" stroke="#4ECB71" stroke-width="4" stroke-linecap="round" stroke-linejoin="round"/>
<path d="M21.6875 30V16C21.6875 14.1615 22.0836 12.341 22.8531 10.6424C23.6226 8.94387 24.7505 7.40053 26.1724 6.10051C27.5943 4.80049 29.2824 3.76925 31.1402 3.06569C32.998 2.36212 34.9891 2 37 2C39.0109 2 41.002 2.36212 42.8598 3.06569C44.7176 3.76925 46.4057 4.80049 47.8276 6.10051C49.2495 7.40053 50.3774 8.94387 51.1469 10.6424C51.9164 12.341 52.3125 14.1615 52.3125 16V30" stroke="#4ECB71" stroke-width="4" stroke-linecap="round" stroke-linejoin="round"/>
</svg>
