<svg width="70" height="80" viewBox="0 0 70 80" fill="none" xmlns="http://www.w3.org/2000/svg">
<g clip-path="url(#clip0_11_614)">
<path d="M35 52.5C32.0992 52.5 29.3172 51.183 27.266 48.8388C25.2148 46.4946 24.0625 43.3152 24.0625 40C24.0625 36.6848 25.2148 33.5054 27.266 31.1612C29.3172 28.817 32.0992 27.5 35 27.5C37.9008 27.5 40.6828 28.817 42.734 31.1612C44.7852 33.5054 45.9375 36.6848 45.9375 40C45.9375 43.3152 44.7852 46.4946 42.734 48.8388C40.6828 51.183 37.9008 52.5 35 52.5ZM35 32.5C33.2595 32.5 31.5903 33.2902 30.3596 34.6967C29.1289 36.1032 28.4375 38.0109 28.4375 40C28.4375 41.9891 29.1289 43.8968 30.3596 45.3033C31.5903 46.7098 33.2595 47.5 35 47.5C36.7405 47.5 38.4097 46.7098 39.6404 45.3033C40.8711 43.8968 41.5625 41.9891 41.5625 40C41.5625 38.0109 40.8711 36.1032 39.6404 34.6967C38.4097 33.2902 36.7405 32.5 35 32.5Z" fill="#85B6FF"/>
<path d="M43.75 80H26.25V69.85C26.2045 69.4092 26.0572 68.9901 25.8231 68.6359C25.589 68.2817 25.2766 68.0051 24.918 67.8345C24.5594 67.664 24.1675 67.6056 23.7827 67.6655C23.3978 67.7253 23.0338 67.9012 22.7281 68.175L16.4281 75.35L4.06875 61.225L10.3469 54.05C10.6274 53.729 10.8186 53.3205 10.8965 52.8756C10.9743 52.4308 10.9353 51.9696 10.7844 51.55C10.6392 51.1127 10.382 50.7357 10.0464 50.4681C9.71076 50.2005 9.31233 50.0548 8.90313 50.05H0V30H8.88125C9.28232 29.9976 9.67361 29.8582 10.0049 29.5999C10.3362 29.3415 10.5924 28.9759 10.7406 28.55C10.8887 28.1317 10.9282 27.6735 10.8545 27.2301C10.7808 26.7868 10.597 26.3771 10.325 26.05L4.06875 18.775L16.4281 4.65L22.7063 11.825C23.0119 12.1054 23.3778 12.2869 23.7658 12.3503C24.1538 12.4138 24.5496 12.3569 24.9117 12.1857C25.2739 12.0146 25.5892 11.7353 25.8246 11.3772C26.0601 11.0191 26.207 10.5952 26.25 10.15V0H43.75V10.15C43.7955 10.5908 43.9428 11.0099 44.1769 11.3641C44.411 11.7183 44.7234 11.9949 45.082 12.1655C45.4406 12.336 45.8325 12.3944 46.2173 12.3345C46.6022 12.2747 46.9662 12.0988 47.2719 11.825L53.55 4.65L65.9313 18.8L59.6531 25.975C59.3726 26.296 59.1814 26.7045 59.1035 27.1494C59.0257 27.5942 59.0647 28.0554 59.2156 28.475C59.3608 28.9123 59.618 29.2893 59.9536 29.5569C60.2892 29.8245 60.6877 29.9702 61.0969 29.975H70V49.975H61.1188C60.7177 49.9774 60.3264 50.1168 59.9951 50.3751C59.6638 50.6335 59.4076 50.9991 59.2594 51.425C59.1113 51.8433 59.0718 52.3015 59.1455 52.7449C59.2192 53.1882 59.403 53.5979 59.675 53.925L65.9531 61.1L53.5719 75.25L47.2938 68.075C46.9881 67.8012 46.6241 67.6253 46.2392 67.5655C45.8543 67.5056 45.4625 67.564 45.1039 67.7345C44.7453 67.9051 44.4329 68.1817 44.1988 68.5359C43.9647 68.8901 43.8173 69.3092 43.7719 69.75L43.75 80ZM30.625 75H39.375V69.85C39.438 68.4354 39.8503 67.07 40.5641 65.9121C41.2779 64.7541 42.2641 63.8508 43.4084 63.3068C44.5527 62.7627 45.8085 62.6001 47.0303 62.8378C48.2522 63.0756 49.3901 63.7039 50.3125 64.65L53.5062 68.3L59.6969 61.225L56.5688 57.5C55.7409 56.4459 55.1911 55.1454 54.9831 53.749C54.7751 52.3526 54.9174 50.9174 55.3934 49.6096C55.8695 48.3018 56.6598 47.1748 57.6731 46.359C58.6863 45.5432 59.8809 45.072 61.1188 45H65.625V35H61.1188C59.8809 34.928 58.6863 34.4568 57.6731 33.641C56.6598 32.8252 55.8695 31.6982 55.3934 30.3904C54.9174 29.0826 54.7751 27.6474 54.9831 26.251C55.1911 24.8547 55.7409 23.5541 56.5688 22.5L59.7625 18.85L53.5719 11.725L50.3125 15.35C49.3901 16.2961 48.2522 16.9244 47.0303 17.1622C45.8085 17.3999 44.5527 17.2373 43.4084 16.6932C42.2641 16.1492 41.2779 15.2459 40.5641 14.0879C39.8503 12.93 39.438 11.5646 39.375 10.15V5H30.625V10.15C30.562 11.5646 30.1497 12.93 29.4359 14.0879C28.7221 15.2459 27.7359 16.1492 26.5916 16.6932C25.4472 17.2373 24.1915 17.3999 22.9697 17.1622C21.7478 16.9244 20.6099 16.2961 19.6875 15.35L16.4281 11.725L10.2594 18.775L13.4312 22.5C14.2591 23.5541 14.8089 24.8547 15.0169 26.251C15.2249 27.6474 15.0826 29.0826 14.6066 30.3904C14.1305 31.6982 13.3402 32.8252 12.3269 33.641C11.3137 34.4568 10.1191 34.928 8.88125 35H4.375V45H8.88125C10.1191 45.072 11.3137 45.5432 12.3269 46.359C13.3402 47.1748 14.1305 48.3018 14.6066 49.6096C15.0826 50.9174 15.2249 52.3526 15.0169 53.749C14.8089 55.1454 14.2591 56.4459 13.4312 57.5L10.2594 61.225L16.45 68.3L19.6875 64.65C20.6099 63.7039 21.7478 63.0756 22.9697 62.8378C24.1915 62.6001 25.4472 62.7627 26.5916 63.3068C27.7359 63.8508 28.7221 64.7541 29.4359 65.9121C30.1497 67.07 30.562 68.4354 30.625 69.85V75Z" fill="#85B6FF"/>
</g>
<defs>
<clipPath id="clip0_11_614">
<rect width="70" height="80" fill="white"/>
</clipPath>
</defs>
</svg>
