<svg width="77" height="123" viewBox="0 0 77 123" fill="none" xmlns="http://www.w3.org/2000/svg">
<path d="M77.01 38.45C76.98 17.18 59.72 -0.0299608 38.45 3.91618e-05C17.19 0.0300392 -0.0299609 17.29 3.91391e-05 38.55C0.0100391 47.82 4.57004 55.98 9.54004 63.61C14.76 71.62 18.31 79.33 22.25 87.92C24.56 92.97 30.86 94.94 36.36 95.32C41.74 95.68 48.57 95.07 53.07 91.39C60.12 85.63 60.28 74.61 64.91 67.26C70.58 58.28 77.02 49.58 77.01 38.45Z" fill="#FCC21B"/>
<path d="M48.96 116.96C49.55 116.53 50.04 116.03 50.38 115.31C50.79 114.41 50.65 113.56 50.55 112.61C50.47 111.8 50.55 111.45 51.1 110.89C51.72 110.26 52.35 109.69 52.46 108.76C52.54 108.07 52.39 107.41 52.26 106.75C52.19 106.51 52.15 106.26 52.15 106.01C52.29 105.48 52.96 105.11 53.33 104.75C54.29 103.82 55.18 102.53 55.46 101.22C55.64 100.4 55.6 99.2201 55.08 98.5301C54.31 97.5101 53.28 97.9202 52.3 98.3602C51.98 98.5002 51.7 98.6802 51.38 98.8302C45.3 101.78 38.14 101.78 31.69 100.15C30.05 99.7402 28.41 99.2401 26.88 98.5201C25.67 97.9601 23.96 97.3302 23.13 98.8302C22.43 100.09 22.79 101.77 23.3 103.04C23.6 103.78 24.25 104.42 24.79 104.99C25.31 105.54 25.54 105.82 25.39 106.52C25.25 107.16 25.35 107.7 25.41 108.35C25.5 109.23 25.62 110.07 26.19 110.78C26.74 111.47 27.56 112 28.05 112.73C28.48 113.36 28.47 114.21 28.72 114.92C29.14 116.08 30.15 117.31 31.17 118.01C32.33 118.8 33.89 118.75 34.9 119.79C36.23 121.17 38.13 122.17 40.09 122.05C42.49 121.91 43.78 120.05 45.61 118.79C46.32 118.3 47.21 118.09 47.96 117.63C48.3 117.4 48.64 117.19 48.96 116.96Z" fill="#78A3AD"/>
</svg>
